<mxfile host="app.diagrams.net" modified="2020-05-30T17:36:13.700Z" agent="5.0 (Windows NT 10.0; Win64; x64) AppleWebKit/537.36 (KHTML, like Gecko) Chrome/81.0.4044.138 Safari/537.36 OPR/68.0.3618.125" etag="4GqJtX9V87j1TY2STc9f" version="13.1.9" type="github">
  <diagram id="3xTcBRRd2haKhJGFG5FI" name="Page-1">
    <mxGraphModel dx="1422" dy="764" grid="1" gridSize="10" guides="1" tooltips="1" connect="1" arrows="1" fold="1" page="1" pageScale="1" pageWidth="1200" pageHeight="1920" math="0" shadow="0">
      <root>
        <mxCell id="0" />
        <mxCell id="1" parent="0" />
        <mxCell id="0HQkJESwMkDg56A1Qlfi-15" style="edgeStyle=orthogonalEdgeStyle;rounded=0;orthogonalLoop=1;jettySize=auto;html=1;startArrow=none;startFill=0;endArrow=open;endFill=0;" edge="1" parent="1" source="N8fOM28-6-wo0cRxQvLK-1" target="0HQkJESwMkDg56A1Qlfi-4">
          <mxGeometry relative="1" as="geometry" />
        </mxCell>
        <mxCell id="0HQkJESwMkDg56A1Qlfi-16" style="edgeStyle=orthogonalEdgeStyle;rounded=0;orthogonalLoop=1;jettySize=auto;html=1;startArrow=none;startFill=0;endArrow=open;endFill=0;" edge="1" parent="1" source="N8fOM28-6-wo0cRxQvLK-1" target="0HQkJESwMkDg56A1Qlfi-3">
          <mxGeometry relative="1" as="geometry" />
        </mxCell>
        <mxCell id="0HQkJESwMkDg56A1Qlfi-17" style="edgeStyle=orthogonalEdgeStyle;rounded=0;orthogonalLoop=1;jettySize=auto;html=1;startArrow=none;startFill=0;endArrow=open;endFill=0;" edge="1" parent="1" source="N8fOM28-6-wo0cRxQvLK-1" target="0HQkJESwMkDg56A1Qlfi-1">
          <mxGeometry relative="1" as="geometry" />
        </mxCell>
        <mxCell id="0HQkJESwMkDg56A1Qlfi-18" style="edgeStyle=orthogonalEdgeStyle;rounded=0;orthogonalLoop=1;jettySize=auto;html=1;startArrow=none;startFill=0;endArrow=open;endFill=0;" edge="1" parent="1" source="N8fOM28-6-wo0cRxQvLK-1" target="0HQkJESwMkDg56A1Qlfi-2">
          <mxGeometry relative="1" as="geometry" />
        </mxCell>
        <mxCell id="0HQkJESwMkDg56A1Qlfi-19" style="edgeStyle=orthogonalEdgeStyle;rounded=0;orthogonalLoop=1;jettySize=auto;html=1;startArrow=none;startFill=0;endArrow=open;endFill=0;" edge="1" parent="1" source="N8fOM28-6-wo0cRxQvLK-1" target="N8fOM28-6-wo0cRxQvLK-2">
          <mxGeometry relative="1" as="geometry" />
        </mxCell>
        <mxCell id="N8fOM28-6-wo0cRxQvLK-1" value="Core Locomotion&lt;br&gt;&lt;font style=&quot;font-size: 8px&quot;&gt;&lt;i&gt;Advanced Locomotion System&lt;/i&gt;&lt;/font&gt;" style="ellipse;whiteSpace=wrap;html=1;gradientColor=#ffd966;fillColor=#fff2cc;strokeColor=#d6b656;" parent="1" vertex="1">
          <mxGeometry x="520" y="80" width="160" height="80" as="geometry" />
        </mxCell>
        <mxCell id="0HQkJESwMkDg56A1Qlfi-31" style="edgeStyle=orthogonalEdgeStyle;rounded=0;orthogonalLoop=1;jettySize=auto;html=1;gradientColor=#b3b3b3;fillColor=#f5f5f5;strokeColor=#666666;startArrow=none;startFill=0;endArrow=open;endFill=0;" edge="1" parent="1" source="N8fOM28-6-wo0cRxQvLK-2" target="0HQkJESwMkDg56A1Qlfi-26">
          <mxGeometry relative="1" as="geometry" />
        </mxCell>
        <mxCell id="0HQkJESwMkDg56A1Qlfi-32" style="edgeStyle=orthogonalEdgeStyle;rounded=0;orthogonalLoop=1;jettySize=auto;html=1;gradientColor=#b3b3b3;fillColor=#f5f5f5;strokeColor=#666666;startArrow=none;startFill=0;endArrow=open;endFill=0;" edge="1" parent="1" source="N8fOM28-6-wo0cRxQvLK-2" target="0HQkJESwMkDg56A1Qlfi-27">
          <mxGeometry relative="1" as="geometry" />
        </mxCell>
        <mxCell id="0HQkJESwMkDg56A1Qlfi-47" style="edgeStyle=orthogonalEdgeStyle;rounded=0;orthogonalLoop=1;jettySize=auto;html=1;gradientColor=#ea6b66;fillColor=#f8cecc;strokeColor=#b85450;startArrow=open;startFill=0;endArrow=open;endFill=0;dashed=1;" edge="1" parent="1" source="N8fOM28-6-wo0cRxQvLK-2" target="0HQkJESwMkDg56A1Qlfi-2">
          <mxGeometry relative="1" as="geometry">
            <Array as="points">
              <mxPoint x="800" y="200" />
              <mxPoint x="400" y="200" />
            </Array>
          </mxGeometry>
        </mxCell>
        <mxCell id="0HQkJESwMkDg56A1Qlfi-50" style="edgeStyle=orthogonalEdgeStyle;rounded=0;orthogonalLoop=1;jettySize=auto;html=1;startArrow=open;startFill=0;endArrow=open;endFill=0;fillColor=#e51400;strokeColor=#B20000;" edge="1" parent="1" source="N8fOM28-6-wo0cRxQvLK-2" target="0HQkJESwMkDg56A1Qlfi-2">
          <mxGeometry relative="1" as="geometry">
            <Array as="points">
              <mxPoint x="800" y="350" />
              <mxPoint x="400" y="350" />
            </Array>
          </mxGeometry>
        </mxCell>
        <mxCell id="N8fOM28-6-wo0cRxQvLK-2" value="Navigation System&lt;br&gt;&lt;span style=&quot;font-size: 8px&quot;&gt;&lt;i&gt;Sub Branches&lt;/i&gt;&lt;/span&gt;" style="ellipse;whiteSpace=wrap;html=1;gradientColor=#7ea6e0;fillColor=#dae8fc;strokeColor=#6c8ebf;" parent="1" vertex="1">
          <mxGeometry x="720" y="240" width="160" height="80" as="geometry" />
        </mxCell>
        <mxCell id="0HQkJESwMkDg56A1Qlfi-35" style="edgeStyle=orthogonalEdgeStyle;rounded=0;orthogonalLoop=1;jettySize=auto;html=1;gradientColor=#b3b3b3;fillColor=#f5f5f5;strokeColor=#666666;startArrow=none;startFill=0;endArrow=open;endFill=0;" edge="1" parent="1" source="0HQkJESwMkDg56A1Qlfi-1" target="0HQkJESwMkDg56A1Qlfi-33">
          <mxGeometry relative="1" as="geometry" />
        </mxCell>
        <mxCell id="0HQkJESwMkDg56A1Qlfi-36" style="edgeStyle=orthogonalEdgeStyle;rounded=0;orthogonalLoop=1;jettySize=auto;html=1;gradientColor=#b3b3b3;fillColor=#f5f5f5;strokeColor=#666666;startArrow=none;startFill=0;endArrow=open;endFill=0;" edge="1" parent="1" source="0HQkJESwMkDg56A1Qlfi-1" target="0HQkJESwMkDg56A1Qlfi-34">
          <mxGeometry relative="1" as="geometry" />
        </mxCell>
        <mxCell id="0HQkJESwMkDg56A1Qlfi-48" style="edgeStyle=orthogonalEdgeStyle;rounded=0;orthogonalLoop=1;jettySize=auto;html=1;fillColor=#6d8764;strokeColor=#3A5431;startArrow=open;startFill=0;endArrow=open;endFill=0;" edge="1" parent="1" source="0HQkJESwMkDg56A1Qlfi-1" target="0HQkJESwMkDg56A1Qlfi-4">
          <mxGeometry relative="1" as="geometry">
            <Array as="points">
              <mxPoint x="600" y="220" />
              <mxPoint x="1000" y="220" />
            </Array>
          </mxGeometry>
        </mxCell>
        <mxCell id="0HQkJESwMkDg56A1Qlfi-1" value="Inventory System&lt;br&gt;&lt;span style=&quot;font-size: 8px&quot;&gt;&lt;i&gt;Sub Branches&lt;/i&gt;&lt;/span&gt;" style="ellipse;whiteSpace=wrap;html=1;gradientColor=#7ea6e0;fillColor=#dae8fc;strokeColor=#6c8ebf;" vertex="1" parent="1">
          <mxGeometry x="520" y="240" width="160" height="80" as="geometry" />
        </mxCell>
        <mxCell id="0HQkJESwMkDg56A1Qlfi-39" style="edgeStyle=orthogonalEdgeStyle;rounded=0;orthogonalLoop=1;jettySize=auto;html=1;gradientColor=#b3b3b3;fillColor=#f5f5f5;strokeColor=#666666;startArrow=none;startFill=0;endArrow=open;endFill=0;" edge="1" parent="1" source="0HQkJESwMkDg56A1Qlfi-2" target="0HQkJESwMkDg56A1Qlfi-38">
          <mxGeometry relative="1" as="geometry" />
        </mxCell>
        <mxCell id="0HQkJESwMkDg56A1Qlfi-40" style="edgeStyle=orthogonalEdgeStyle;rounded=0;orthogonalLoop=1;jettySize=auto;html=1;gradientColor=#b3b3b3;fillColor=#f5f5f5;strokeColor=#666666;startArrow=none;startFill=0;endArrow=open;endFill=0;" edge="1" parent="1" source="0HQkJESwMkDg56A1Qlfi-2" target="0HQkJESwMkDg56A1Qlfi-37">
          <mxGeometry relative="1" as="geometry" />
        </mxCell>
        <mxCell id="0HQkJESwMkDg56A1Qlfi-2" value="Quest System&lt;br&gt;&lt;span style=&quot;font-size: 8px&quot;&gt;&lt;i&gt;Sub Branches&lt;/i&gt;&lt;/span&gt;" style="ellipse;whiteSpace=wrap;html=1;gradientColor=#7ea6e0;fillColor=#dae8fc;strokeColor=#6c8ebf;" vertex="1" parent="1">
          <mxGeometry x="320" y="240" width="160" height="80" as="geometry" />
        </mxCell>
        <mxCell id="0HQkJESwMkDg56A1Qlfi-43" style="edgeStyle=orthogonalEdgeStyle;rounded=0;orthogonalLoop=1;jettySize=auto;html=1;gradientColor=#b3b3b3;fillColor=#f5f5f5;strokeColor=#666666;startArrow=none;startFill=0;endArrow=open;endFill=0;" edge="1" parent="1" source="0HQkJESwMkDg56A1Qlfi-3" target="0HQkJESwMkDg56A1Qlfi-41">
          <mxGeometry relative="1" as="geometry" />
        </mxCell>
        <mxCell id="0HQkJESwMkDg56A1Qlfi-45" style="edgeStyle=orthogonalEdgeStyle;rounded=0;orthogonalLoop=1;jettySize=auto;html=1;gradientColor=#b3b3b3;fillColor=#f5f5f5;strokeColor=#666666;startArrow=none;startFill=0;endArrow=open;endFill=0;" edge="1" parent="1" source="0HQkJESwMkDg56A1Qlfi-3" target="0HQkJESwMkDg56A1Qlfi-42">
          <mxGeometry relative="1" as="geometry" />
        </mxCell>
        <mxCell id="0HQkJESwMkDg56A1Qlfi-46" style="edgeStyle=orthogonalEdgeStyle;rounded=0;orthogonalLoop=1;jettySize=auto;html=1;fillColor=#6d8764;strokeColor=#3A5431;startArrow=open;startFill=0;endArrow=open;endFill=0;" edge="1" parent="1" source="0HQkJESwMkDg56A1Qlfi-3" target="0HQkJESwMkDg56A1Qlfi-1">
          <mxGeometry relative="1" as="geometry">
            <Array as="points">
              <mxPoint x="200" y="340" />
              <mxPoint x="600" y="340" />
            </Array>
          </mxGeometry>
        </mxCell>
        <mxCell id="0HQkJESwMkDg56A1Qlfi-54" style="edgeStyle=orthogonalEdgeStyle;rounded=0;orthogonalLoop=1;jettySize=auto;html=1;startArrow=open;startFill=0;endArrow=open;endFill=0;fillColor=#fa6800;strokeColor=#C73500;" edge="1" parent="1" source="0HQkJESwMkDg56A1Qlfi-3" target="0HQkJESwMkDg56A1Qlfi-4">
          <mxGeometry relative="1" as="geometry">
            <Array as="points">
              <mxPoint x="200" y="170" />
              <mxPoint x="1000" y="170" />
            </Array>
          </mxGeometry>
        </mxCell>
        <mxCell id="0HQkJESwMkDg56A1Qlfi-3" value="Equipment System&lt;br&gt;&lt;span style=&quot;font-size: 8px&quot;&gt;&lt;i&gt;Sub Branches&lt;/i&gt;&lt;/span&gt;" style="ellipse;whiteSpace=wrap;html=1;gradientColor=#7ea6e0;fillColor=#dae8fc;strokeColor=#6c8ebf;" vertex="1" parent="1">
          <mxGeometry x="120" y="240" width="160" height="80" as="geometry" />
        </mxCell>
        <mxCell id="0HQkJESwMkDg56A1Qlfi-28" style="edgeStyle=orthogonalEdgeStyle;rounded=0;orthogonalLoop=1;jettySize=auto;html=1;gradientColor=#b3b3b3;fillColor=#f5f5f5;strokeColor=#666666;startArrow=none;startFill=0;endArrow=open;endFill=0;" edge="1" parent="1" source="0HQkJESwMkDg56A1Qlfi-4" target="0HQkJESwMkDg56A1Qlfi-23">
          <mxGeometry relative="1" as="geometry" />
        </mxCell>
        <mxCell id="0HQkJESwMkDg56A1Qlfi-29" style="edgeStyle=orthogonalEdgeStyle;rounded=0;orthogonalLoop=1;jettySize=auto;html=1;gradientColor=#b3b3b3;fillColor=#f5f5f5;strokeColor=#666666;startArrow=none;startFill=0;endArrow=open;endFill=0;" edge="1" parent="1" source="0HQkJESwMkDg56A1Qlfi-4" target="0HQkJESwMkDg56A1Qlfi-25">
          <mxGeometry relative="1" as="geometry" />
        </mxCell>
        <mxCell id="0HQkJESwMkDg56A1Qlfi-51" style="edgeStyle=orthogonalEdgeStyle;rounded=0;orthogonalLoop=1;jettySize=auto;html=1;dashed=1;startArrow=open;startFill=0;endArrow=open;endFill=0;gradientColor=#ea6b66;fillColor=#f8cecc;strokeColor=#b85450;" edge="1" parent="1" source="0HQkJESwMkDg56A1Qlfi-4" target="0HQkJESwMkDg56A1Qlfi-1">
          <mxGeometry relative="1" as="geometry">
            <Array as="points">
              <mxPoint x="1000" y="180" />
              <mxPoint x="600" y="180" />
            </Array>
          </mxGeometry>
        </mxCell>
        <mxCell id="0HQkJESwMkDg56A1Qlfi-4" value="Player Management &lt;br&gt;System&lt;br&gt;&lt;span style=&quot;font-size: 8px&quot;&gt;&lt;i&gt;Sub Branches&lt;/i&gt;&lt;/span&gt;" style="ellipse;whiteSpace=wrap;html=1;gradientColor=#7ea6e0;fillColor=#dae8fc;strokeColor=#6c8ebf;" vertex="1" parent="1">
          <mxGeometry x="920" y="240" width="160" height="80" as="geometry" />
        </mxCell>
        <mxCell id="0HQkJESwMkDg56A1Qlfi-23" value="Stamina" style="ellipse;whiteSpace=wrap;html=1;aspect=fixed;gradientColor=#b3b3b3;fillColor=#f5f5f5;strokeColor=#666666;" vertex="1" parent="1">
          <mxGeometry x="1000" y="400" width="80" height="80" as="geometry" />
        </mxCell>
        <mxCell id="0HQkJESwMkDg56A1Qlfi-25" value="Health" style="ellipse;whiteSpace=wrap;html=1;aspect=fixed;gradientColor=#b3b3b3;fillColor=#f5f5f5;strokeColor=#666666;" vertex="1" parent="1">
          <mxGeometry x="920" y="400" width="80" height="80" as="geometry" />
        </mxCell>
        <mxCell id="0HQkJESwMkDg56A1Qlfi-26" value="World Map" style="ellipse;whiteSpace=wrap;html=1;aspect=fixed;gradientColor=#b3b3b3;fillColor=#f5f5f5;strokeColor=#666666;" vertex="1" parent="1">
          <mxGeometry x="800" y="400" width="80" height="80" as="geometry" />
        </mxCell>
        <mxCell id="0HQkJESwMkDg56A1Qlfi-27" value="Mini Map" style="ellipse;whiteSpace=wrap;html=1;aspect=fixed;gradientColor=#b3b3b3;fillColor=#f5f5f5;strokeColor=#666666;" vertex="1" parent="1">
          <mxGeometry x="720" y="400" width="80" height="80" as="geometry" />
        </mxCell>
        <mxCell id="0HQkJESwMkDg56A1Qlfi-33" value="Chests" style="ellipse;whiteSpace=wrap;html=1;aspect=fixed;gradientColor=#b3b3b3;fillColor=#f5f5f5;strokeColor=#666666;" vertex="1" parent="1">
          <mxGeometry x="600" y="400" width="80" height="80" as="geometry" />
        </mxCell>
        <mxCell id="0HQkJESwMkDg56A1Qlfi-34" value="Items" style="ellipse;whiteSpace=wrap;html=1;aspect=fixed;gradientColor=#b3b3b3;fillColor=#f5f5f5;strokeColor=#666666;" vertex="1" parent="1">
          <mxGeometry x="520" y="400" width="80" height="80" as="geometry" />
        </mxCell>
        <mxCell id="0HQkJESwMkDg56A1Qlfi-37" value="Side Quests" style="ellipse;whiteSpace=wrap;html=1;aspect=fixed;gradientColor=#b3b3b3;fillColor=#f5f5f5;strokeColor=#666666;" vertex="1" parent="1">
          <mxGeometry x="400" y="400" width="80" height="80" as="geometry" />
        </mxCell>
        <mxCell id="0HQkJESwMkDg56A1Qlfi-38" value="Main Story" style="ellipse;whiteSpace=wrap;html=1;aspect=fixed;gradientColor=#b3b3b3;fillColor=#f5f5f5;strokeColor=#666666;" vertex="1" parent="1">
          <mxGeometry x="320" y="400" width="80" height="80" as="geometry" />
        </mxCell>
        <mxCell id="0HQkJESwMkDg56A1Qlfi-41" value="Armour" style="ellipse;whiteSpace=wrap;html=1;aspect=fixed;gradientColor=#b3b3b3;fillColor=#f5f5f5;strokeColor=#666666;" vertex="1" parent="1">
          <mxGeometry x="200" y="400" width="80" height="80" as="geometry" />
        </mxCell>
        <mxCell id="0HQkJESwMkDg56A1Qlfi-42" value="Weapons" style="ellipse;whiteSpace=wrap;html=1;aspect=fixed;gradientColor=#b3b3b3;fillColor=#f5f5f5;strokeColor=#666666;" vertex="1" parent="1">
          <mxGeometry x="120" y="400" width="80" height="80" as="geometry" />
        </mxCell>
        <mxCell id="0HQkJESwMkDg56A1Qlfi-52" style="edgeStyle=orthogonalEdgeStyle;rounded=0;orthogonalLoop=1;jettySize=auto;html=1;gradientColor=#ea6b66;fillColor=#f8cecc;strokeColor=#b85450;startArrow=open;startFill=0;endArrow=open;endFill=0;" edge="1" parent="1">
          <mxGeometry relative="1" as="geometry">
            <mxPoint x="800" y="239.9999999999999" as="sourcePoint" />
            <mxPoint x="400" y="239.9999999999999" as="targetPoint" />
            <Array as="points">
              <mxPoint x="800" y="200" />
              <mxPoint x="400" y="200" />
            </Array>
          </mxGeometry>
        </mxCell>
        <mxCell id="0HQkJESwMkDg56A1Qlfi-53" style="edgeStyle=orthogonalEdgeStyle;rounded=0;orthogonalLoop=1;jettySize=auto;html=1;startArrow=open;startFill=0;endArrow=open;endFill=0;fillColor=#f0a30a;strokeColor=#BD7000;" edge="1" parent="1">
          <mxGeometry relative="1" as="geometry">
            <mxPoint x="1000" y="239.9999999999999" as="sourcePoint" />
            <mxPoint x="600" y="239.9999999999999" as="targetPoint" />
            <Array as="points">
              <mxPoint x="1000" y="180" />
              <mxPoint x="600" y="180" />
            </Array>
          </mxGeometry>
        </mxCell>
      </root>
    </mxGraphModel>
  </diagram>
</mxfile>
